<!-- icon666.com - MILLIONS vector ICONS FREE --><svg id="Capa_1" enable-background="new 0 0 512 512" viewBox="0 0 512 512" xmlns="http://www.w3.org/2000/svg"><g><g><path d="m442.798 302.624h-102.932v37.805c0 4.184-4.833 6.518-8.109 3.916l-46.689-37.075c-1.092-.867-2.639-.867-3.731 0l-46.689 37.075c-3.277 2.602-8.109.269-8.109-3.916v-37.805h-102.934c-24.853 0-45 20.147-45 45v56.876h107.519c2.761 0 5 2.239 5 5v95h286.674c5.523 0 10-4.477 10-10v-146.876c0-24.853-20.147-45-45-45z" fill="#fed402"></path><g><g><path d="m134 404.5v-56.876c0-24.853 20.147-45 45-45h-55.395c-24.853 0-45 20.147-45 45v56.876z" fill="#fac600"></path></g></g><path d="m285.067 307.269c-1.092-.867-2.639-.867-3.731 0l-29.517 23.439 14.696 29.26h33.374l14.696-29.26z" fill="#00c27a"></path><g><path d="m309.496 504.5-9.607-144.532h-33.374l-9.608 144.532z" fill="#00c27a"></path></g><path d="m306.214 285.422h-46.024c-12.141 0-23.58-2.981-33.653-8.225v63.231c0 4.184 4.833 6.518 8.109 3.916l46.689-37.075c1.092-.867 2.639-.867 3.731 0l46.689 37.075c3.277 2.602 8.109.269 8.109-3.916v-63.231c-10.071 5.244-21.509 8.225-33.65 8.225z" fill="#fac600"></path><g><path d="m170.327 147.12h16.863v-23.721c0-16.049 12.602-29.154 28.45-29.96l-12.08-4.503c-10.655-3.972-19.922-10.336-27.303-18.338-11.25 9.042-18.785 22.899-18.785 39.354v40.059c3.897-1.852 8.254-2.891 12.855-2.891z" fill="#bb5d4c"></path><path d="m203.56 88.935 12.08 4.503c.513-.026 1.03-.04 1.55-.04h132.024c16.569 0 30 13.432 30 30v23.721h16.863c4.601 0 8.958 1.039 12.855 2.89v-66.619c0-41.913-33.977-75.89-75.89-75.89h-170.51c-2.794 0-5.059 2.265-5.059 5.059v10.007c-.001 29.576 18.375 56.038 46.087 66.369z" fill="#bb5d4c"></path><g><g><path d="m215.64 93.438c.513-.026 1.03-.04 1.55-.04h50.413l-11.974-4.464c-27.712-10.331-46.088-36.793-46.088-66.369v-10.006c0-2.794 2.265-5.059 5.059-5.059h-52.069c-2.794 0-5.059 2.265-5.059 5.059v10.007c0 29.575 18.376 56.037 46.088 66.369z" fill="#a44f3e"></path></g></g><g fill="#ffbd86"><path d="m187.19 212.422v-65.302h-16.863c-16.569 0-30 13.431-30 30v12.009c0 16.569 13.431 30 30 30h17.182c-.201-2.21-.319-4.444-.319-6.707z"></path><path d="m396.076 147.12h-16.863v65.303c0 2.262-.118 4.496-.319 6.706h17.182c16.569 0 30-13.431 30-30v-12.009c0-16.569-13.431-30-30-30z"></path></g><g><path d="m306.214 285.422h-46.024c-40.317 0-73-32.683-73-73v-89.024c0-16.569 13.431-30 30-30h132.024c16.569 0 30 13.431 30 30v89.024c0 40.317-32.684 73-73 73z" fill="#fed2a4"></path></g><g><path d="m229 212.422v-89.024c0-16.568 13.431-30 30-30h-41.81c-16.569 0-30 13.432-30 30v89.024c0 40.317 32.683 73 73 73h41.81c-40.317 0-73-32.683-73-73z" fill="#ffbd86"></path></g></g><g><path d="m352.008 504.5h94.241v-46.108c0-2.761-2.239-5-5-5h-84.241c-2.761 0-5 2.239-5 5z" fill="#fac600"></path></g></g><g><g><g><g><path d="m191.124 504.5h-161.922c-2.761 0-5-2.239-5-5v-45h166.922z" fill="#fff"></path></g><path d="m66.078 499.5v-20h-41.876v20c0 2.761 2.239 5 5 5h41.876c-2.762 0-5-2.239-5-5z" fill="#f3f0f3"></path><g><path d="m24.202 454.5h166.922v25h-166.922z" fill="#fff"></path></g><g><path d="m24.202 454.5h41.876v25h-41.876z" fill="#f3f0f3"></path></g></g><g><g><path d="m191.124 454.5h-166.922v-45c0-2.761 2.239-5 5-5h156.922c2.761 0 5 2.239 5 5z" fill="#fff"></path></g><path d="m24.202 429.5h41.876v25h-41.876z" fill="#f3f0f3"></path><g><path d="m191.124 429.5h-166.922v-20c0-2.761 2.239-5 5-5h156.922c2.761 0 5 2.239 5 5z" fill="#fff"></path></g><g><path d="m71.078 404.5h-41.876c-2.761 0-5 2.239-5 5v20h41.876v-20c0-2.761 2.238-5 5-5z" fill="#f3f0f3"></path></g></g></g></g><g><path d="m237.668 141.699c-4.142 0-7.5 3.358-7.5 7.5v21.717c0 4.142 3.358 7.5 7.5 7.5s7.5-3.358 7.5-7.5v-21.717c0-4.142-3.358-7.5-7.5-7.5z"></path><path d="m328.735 178.416c4.142 0 7.5-3.358 7.5-7.5v-21.717c0-4.142-3.358-7.5-7.5-7.5s-7.5 3.358-7.5 7.5v21.717c0 4.142 3.358 7.5 7.5 7.5z"></path><path d="m278.174 208.691c1.435 1.296 3.233 1.935 5.025 1.935 2.047 0 4.087-.833 5.567-2.472 2.777-3.073 2.537-7.816-.537-10.593l-8.067-7.289 9.87-21.768c1.71-3.772.039-8.217-3.733-9.928-3.773-1.71-8.217-.04-9.928 3.733l-12.132 26.757c-1.348 2.972-.619 6.475 1.803 8.662z"></path><path d="m302.933 248.4c4.142 0 7.5-3.358 7.5-7.5s-3.358-7.5-7.5-7.5h-39.463c-4.142 0-7.5 3.358-7.5 7.5s3.358 7.5 7.5 7.5z"></path><path d="m442.798 295.124h-25.798c-4.142 0-7.5 3.358-7.5 7.5s3.358 7.5 7.5 7.5h25.798c20.678 0 37.5 16.822 37.5 37.5v146.876c0 1.378-1.122 2.5-2.5 2.5h-24.049v-38.608c0-6.893-5.607-12.5-12.5-12.5h-15.97v-8.69c0-4.142-3.358-7.5-7.5-7.5s-7.5 3.358-7.5 7.5v8.69h-53.271c-6.893 0-12.5 5.607-12.5 12.5v38.608h-27.994l-9.006-135.491 9.638-19.19 9.947 7.898c3.79 3.009 8.851 3.571 13.208 1.468 4.358-2.104 7.065-6.417 7.065-11.257v-30.305h34.634c4.142 0 7.5-3.358 7.5-7.5s-3.358-7.5-7.5-7.5h-34.634v-13.552c19.655-11.741 33.909-31.616 38.082-54.944h10.628c20.678 0 37.5-16.822 37.5-37.5v-12.007c0-13.177-6.838-24.78-17.145-31.47v-62.26c0-45.981-37.409-83.39-83.39-83.39h-170.51c-6.925 0-12.559 5.634-12.559 12.559v10.007c0 17.412 5.871 33.95 15.998 47.308-10.194 10.618-15.998 24.766-15.998 40.076v35.699c-10.307 6.69-17.145 18.293-17.145 31.47v12.009c0 20.678 16.822 37.5 37.5 37.5h10.628c4.174 23.328 18.427 43.203 38.082 54.944v13.552h-95.432c-28.949 0-52.5 23.551-52.5 52.5v49.376h-41.903c-6.893 0-12.5 5.607-12.5 12.5v90c0 6.893 5.607 12.5 12.5 12.5h448.597c9.649 0 17.5-7.851 17.5-17.5v-146.876c-.001-28.949-23.552-52.5-52.501-52.5zm-110.432 40.127-42.637-33.857c-3.844-3.05-9.212-3.05-13.058.001l-42.635 33.855v-46.714c8.206 2.828 16.999 4.385 26.153 4.385h46.023c9.154 0 17.947-1.557 26.153-4.385v46.715zm86.211-158.131v12.009c0 12.407-10.093 22.5-22.5 22.5h-9.363v-57.009h9.363c12.406 0 22.5 10.093 22.5 22.5zm-253.605-154.554v-7.566h168.069c37.71 0 68.39 30.68 68.39 68.39v56.618c-1.75-.251-3.536-.388-5.355-.388h-9.363v-16.221c0-20.678-16.822-37.5-37.5-37.5h-45.31c-11.698-6.953-19.558-19.714-19.558-34.282 0-4.142-3.358-7.5-7.5-7.5s-7.5 3.358-7.5 7.5c0 12.969 4.544 24.884 12.099 34.282h-22.184c-11.698-6.953-19.558-19.714-19.558-34.282 0-4.142-3.358-7.5-7.5-7.5s-7.5 3.358-7.5 7.5c0 12.969 4.544 24.884 12.099 34.282h-19.611c-.096 0-.19.007-.285.007l-10.724-3.998c-24.648-9.189-41.209-33.036-41.209-59.342zm14.718 189.062h-9.363c-12.407 0-22.5-10.093-22.5-22.5v-12.008c0-12.407 10.093-22.5 22.5-22.5h9.363zm0-88.23v16.221h-9.363c-1.818 0-3.605.137-5.355.388v-30.057c0-11.015 4.04-21.226 11.181-29.017 5.522 4.957 11.776 9.16 18.629 12.414-9.155 6.845-15.092 17.768-15.092 30.051zm15 89.024v-89.024c0-12.407 10.093-22.5 22.5-22.5h132.023c12.407 0 22.5 10.093 22.5 22.5v89.024c0 36.117-29.383 65.5-65.5 65.5h-46.023c-36.117 0-65.5-29.383-65.5-65.5zm-11.066 284.578h-151.922v-10h151.922zm0-25h-151.922v-10h151.922zm0-50h-28.624c-4.142 0-7.5 3.358-7.5 7.5s3.358 7.5 7.5 7.5h28.624v10h-151.922v-10h88.298c4.142 0 7.5-3.358 7.5-7.5s-3.358-7.5-7.5-7.5h-88.298v-10h151.922zm81.298 75 2.491-37.479c.275-4.133-2.853-7.707-6.986-7.981-4.134-.271-7.707 2.853-7.981 6.986l-2.557 38.474h-51.265v-87.5c0-6.893-5.607-12.5-12.5-12.5h-100.019v-49.376c0-20.678 16.822-37.5 37.5-37.5h95.432v30.305c0 4.839 2.707 9.152 7.065 11.257 1.748.844 3.609 1.259 5.457 1.259 2.757 0 5.482-.925 7.751-2.727l9.947-7.899 9.638 19.19-4.127 62.081c-.275 4.133 2.853 7.706 6.986 7.981 4.132.274 7.707-2.853 7.981-6.986l3.797-57.117h19.338l8.611 129.532zm30.341-144.532h-24.122l-9.883-19.678 21.945-17.426 21.945 17.426zm143.486 144.532h-79.241v-36.108h50.771v10.713c0 4.142 3.358 7.5 7.5 7.5s7.5-3.358 7.5-7.5v-10.713h13.47z"></path></g></g></svg>